<svg width="285" height="285" viewBox="0 0 285 285" fill="none" xmlns="http://www.w3.org/2000/svg">
<path fill-rule="evenodd" clip-rule="evenodd" d="M4.39763 284.459L4.94349 283.143C5.61358 283.421 6.3495 283.575 7.125 283.575H10.0937V285H7.125C6.15891 285 5.23773 284.808 4.39763 284.459ZM75.4062 285V283.575H78.375C79.1505 283.575 79.8864 283.421 80.5565 283.143L81.1024 284.459C80.2623 284.808 79.3411 285 78.375 285H75.4062ZM85.5 223.725H84.075V220.875C84.075 220.099 83.9209 219.364 83.643 218.693L84.9594 218.148C85.3077 218.988 85.5 219.909 85.5 220.875V223.725ZM10.0938 213.75H7.125C6.15891 213.75 5.23773 213.942 4.39764 214.291L4.94349 215.607C5.61359 215.329 6.3495 215.175 7.125 215.175H10.0938V213.75ZM0 275.025H1.425V277.875C1.425 278.65 1.57908 279.386 1.85696 280.056L0.540648 280.602C0.192276 279.762 0 278.841 0 277.875V275.025ZM0 269.325H1.425V263.625H0V269.325ZM0 257.925H1.425V252.225H0V257.925ZM0 246.525H1.425V240.825H0V246.525ZM0 235.125H1.425V229.425H0V235.125ZM0 223.725H1.425V220.875C1.425 220.099 1.57908 219.364 1.85696 218.693L0.540649 218.148C0.192276 218.988 0 219.909 0 220.875V223.725ZM16.0312 213.75V215.175H21.9687V213.75H16.0312ZM27.9062 213.75V215.175H33.8438V213.75H27.9062ZM39.7812 213.75V215.175H45.7187V213.75H39.7812ZM51.6562 213.75V215.175H57.5937V213.75H51.6562ZM63.5312 213.75V215.175H69.4688V213.75H63.5312ZM75.4062 213.75V215.175H78.375C79.1505 215.175 79.8864 215.329 80.5565 215.607L81.1024 214.291C80.2623 213.942 79.3411 213.75 78.375 213.75H75.4062ZM85.5 229.425H84.075V235.125H85.5V229.425ZM85.5 240.825H84.075V246.525H85.5V240.825ZM85.5 252.225H84.075V257.925H85.5V252.225ZM85.5 263.625H84.075V269.325H85.5V263.625ZM85.5 275.025H84.075V277.875C84.075 278.65 83.9209 279.386 83.643 280.056L84.9594 280.602C85.3077 279.762 85.5 278.841 85.5 277.875V275.025ZM69.4688 285V283.575H63.5312V285H69.4688ZM57.5938 285V283.575H51.6562V285H57.5938ZM45.7188 285V283.575H39.7812V285H45.7188ZM33.8438 285V283.575H27.9063V285H33.8438ZM21.9688 285V283.575H16.0312V285H21.9688Z" fill="#334A59"/>
<path d="M14.25 235.125C14.25 231.19 17.44 228 21.375 228H64.125C68.06 228 71.25 231.19 71.25 235.125V263.625C71.25 267.56 68.06 270.75 64.125 270.75H21.375C17.44 270.75 14.25 267.56 14.25 263.625V235.125Z" fill="#334A59"/>
<path fill-rule="evenodd" clip-rule="evenodd" d="M104.148 284.459L104.693 283.143C105.364 283.421 106.099 283.575 106.875 283.575H109.844V285H106.875C105.909 285 104.988 284.808 104.148 284.459ZM175.156 285V283.575H178.125C178.9 283.575 179.636 283.421 180.307 283.143L180.852 284.459C180.012 284.808 179.091 285 178.125 285H175.156ZM185.25 152.54H183.825V149.625C183.825 148.85 183.671 148.114 183.393 147.443L184.709 146.898C185.058 147.738 185.25 148.659 185.25 149.625V152.54ZM109.844 142.5H106.875C105.909 142.5 104.988 142.692 104.148 143.041L104.693 144.357C105.364 144.079 106.1 143.925 106.875 143.925H109.844V142.5ZM99.75 274.96H101.175V277.875C101.175 278.65 101.329 279.386 101.607 280.056L100.291 280.602C99.9423 279.762 99.75 278.841 99.75 277.875V274.96ZM99.75 269.131H101.175V263.301H99.75V269.131ZM99.75 257.472H101.175V251.642H99.75V257.472ZM99.75 245.812H101.175V239.983H99.75V245.812ZM99.75 234.153H101.175V228.324H99.75V234.153ZM99.75 222.494H101.175V216.665H99.75V222.494ZM99.75 210.835H101.175V205.006H99.75V210.835ZM99.75 199.176H101.175V193.347H99.75V199.176ZM99.75 187.517H101.175V181.688H99.75V187.517ZM99.75 175.858H101.175V170.028H99.75V175.858ZM99.75 164.199H101.175V158.369H99.75V164.199ZM99.75 152.54H101.175V149.625C101.175 148.85 101.329 148.114 101.607 147.443L100.291 146.898C99.9423 147.738 99.75 148.659 99.75 149.625V152.54ZM115.781 142.5V143.925H121.719V142.5H115.781ZM127.656 142.5V143.925H133.594V142.5H127.656ZM139.531 142.5V143.925H145.469V142.5H139.531ZM151.406 142.5V143.925H157.344V142.5H151.406ZM163.281 142.5V143.925H169.219V142.5H163.281ZM175.156 142.5V143.925H178.125C178.9 143.925 179.636 144.079 180.307 144.357L180.852 143.041C180.012 142.692 179.091 142.5 178.125 142.5H175.156ZM185.25 158.369H183.825V164.199H185.25V158.369ZM185.25 170.028H183.825V175.858H185.25V170.028ZM185.25 181.688H183.825V187.517H185.25V181.688ZM185.25 193.347H183.825V199.176H185.25V193.347ZM185.25 205.006H183.825V210.835H185.25V205.006ZM185.25 216.665H183.825V222.494H185.25V216.665ZM185.25 228.324H183.825V234.153H185.25V228.324ZM185.25 239.983H183.825V245.812H185.25V239.983ZM185.25 251.642H183.825V257.472H185.25V251.642ZM185.25 263.301H183.825V269.131H185.25V263.301ZM185.25 274.96H183.825V277.875C183.825 278.65 183.671 279.386 183.393 280.056L184.709 280.602C185.058 279.762 185.25 278.841 185.25 277.875V274.96ZM169.219 285V283.575H163.281V285H169.219ZM157.344 285V283.575H151.406V285H157.344ZM145.469 285V283.575H139.531V285H145.469ZM133.594 285V283.575H127.656V285H133.594ZM121.719 285V283.575H115.781V285H121.719Z" fill="#334A59"/>
<path d="M114 163.875C114 159.94 117.19 156.75 121.125 156.75H163.875C167.81 156.75 171 159.94 171 163.875V263.625C171 267.56 167.81 270.75 163.875 270.75H121.125C117.19 270.75 114 267.56 114 263.625V163.875Z" fill="#334A59"/>
<path fill-rule="evenodd" clip-rule="evenodd" d="M272.175 2.85H212.325C206.816 2.85 202.35 7.31596 202.35 12.825V272.175C202.35 277.684 206.816 282.15 212.325 282.15H272.175C277.684 282.15 282.15 277.684 282.15 272.175V12.825C282.15 7.31596 277.684 2.85 272.175 2.85ZM212.325 0C205.242 0 199.5 5.74195 199.5 12.825V272.175C199.5 279.258 205.242 285 212.325 285H272.175C279.258 285 285 279.258 285 272.175V12.825C285 5.74195 279.258 0 272.175 0H212.325Z" fill="#03CA9B"/>
<path d="M213.75 18.525C213.75 16.164 215.664 14.25 218.025 14.25H266.475C268.836 14.25 270.75 16.164 270.75 18.525V266.475C270.75 268.836 268.836 270.75 266.475 270.75H218.025C215.664 270.75 213.75 268.836 213.75 266.475V18.525Z" fill="url(#paint0_linear_7941_569)"/>
<defs>
<linearGradient id="paint0_linear_7941_569" x1="0" y1="0" x2="341.761" y2="172.628" gradientUnits="userSpaceOnUse">
<stop stop-color="#77EFD2"/>
<stop offset="1" stop-color="#4166BC"/>
</linearGradient>
</defs>
</svg>
