<svg width="402" height="238" viewBox="0 0 402 238" fill="none" xmlns="http://www.w3.org/2000/svg">
<g opacity="0.6">
<path opacity="0.6" d="M59.2999 17.2C67.5289 17.2 74.1999 13.3496 74.1999 8.6C74.1999 3.85035 67.5289 0 59.2999 0C51.0709 0 44.3999 3.85035 44.3999 8.6C44.3999 13.3496 51.0709 17.2 59.2999 17.2Z" fill="url(#paint0_linear)"/>
</g>
<path d="M106.6 77.0001C123.058 77.0001 136.4 69.2994 136.4 59.8001C136.4 50.3008 123.058 42.6001 106.6 42.6001C90.142 42.6001 76.8 50.3008 76.8 59.8001C76.8 69.2994 90.142 77.0001 106.6 77.0001Z" fill="white"/>
<path d="M203.8 147.5C234.01 147.5 258.5 133.352 258.5 115.9C258.5 98.4478 234.01 84.3 203.8 84.3C173.59 84.3 149.1 98.4478 149.1 115.9C149.1 133.352 173.59 147.5 203.8 147.5Z" stroke="url(#paint1_linear)" stroke-width="1.6988" stroke-miterlimit="10"/>
<path d="M300.9 189.2C317.358 189.2 330.7 181.499 330.7 172C330.7 162.501 317.358 154.8 300.9 154.8C284.442 154.8 271.1 162.501 271.1 172C271.1 181.499 284.442 189.2 300.9 189.2Z" fill="white"/>
<g opacity="0.6">
<path opacity="0.6" d="M353.3 235.3C361.529 235.3 368.2 231.45 368.2 226.7C368.2 221.95 361.529 218.1 353.3 218.1C345.071 218.1 338.4 221.95 338.4 226.7C338.4 231.45 345.071 235.3 353.3 235.3Z" fill="url(#paint2_linear)"/>
</g>
<g opacity="0.6">
<path opacity="0.6" d="M384.2 38.4C392.429 38.4 399.1 34.5496 399.1 29.7999C399.1 25.0503 392.429 21.2 384.2 21.2C375.971 21.2 369.3 25.0503 369.3 29.7999C369.3 34.5496 375.971 38.4 384.2 38.4Z" fill="url(#paint3_linear)"/>
</g>
<path d="M300.9 77.0001C317.358 77.0001 330.7 69.2994 330.7 59.8001C330.7 50.3008 317.358 42.6001 300.9 42.6001C284.442 42.6001 271.1 50.3008 271.1 59.8001C271.1 69.2994 284.442 77.0001 300.9 77.0001Z" fill="white"/>
<path d="M106.6 189.2C123.058 189.2 136.4 181.499 136.4 172C136.4 162.501 123.058 154.8 106.6 154.8C90.142 154.8 76.8 162.501 76.8 172C76.8 181.499 90.142 189.2 106.6 189.2Z" fill="white"/>
<g opacity="0.6">
<path opacity="0.6" d="M15.0999 213.2C23.329 213.2 30 209.35 30 204.6C30 199.85 23.329 196 15.0999 196C6.87091 196 0.199951 199.85 0.199951 204.6C0.199951 209.35 6.87091 213.2 15.0999 213.2Z" fill="url(#paint4_linear)"/>
</g>
<path d="M140.2 91.3V79.3H161" stroke="white" stroke-width="0.8494" stroke-miterlimit="10"/>
<path d="M267.3 140.6V152.6H246.5" stroke="white" stroke-width="0.8494" stroke-miterlimit="10"/>
<path d="M246.5 79.3H267.3V91.3" stroke="white" stroke-width="0.8494" stroke-miterlimit="10"/>
<path d="M161 152.6H140.2V140.6" stroke="white" stroke-width="0.8494" stroke-miterlimit="10"/>
<path d="M324.6 34.2H345.4V46.2" stroke="url(#paint5_linear)" stroke-width="0.8494" stroke-miterlimit="10"/>
<path d="M80.1999 199.3H59.3999V187.3" stroke="url(#paint6_linear)" stroke-width="0.8494" stroke-miterlimit="10"/>
<path d="M61.8 46V34H82.6" stroke="url(#paint7_linear)" stroke-width="0.8494" stroke-miterlimit="10"/>
<path d="M348.1 187.3V199.3H327.3" stroke="url(#paint8_linear)" stroke-width="0.8494" stroke-miterlimit="10"/>
<g opacity="0.6">
<path opacity="0.6" d="M24.0999 35C32.329 35 39 31.1497 39 26.4C39 21.6504 32.329 17.8 24.0999 17.8C15.8709 17.8 9.19995 21.6504 9.19995 26.4C9.19995 31.1497 15.8709 35 24.0999 35Z" fill="url(#paint9_linear)"/>
</g>
<g opacity="0.6">
<path opacity="0.6" d="M351.3 19.5C359.529 19.5 366.2 15.6497 366.2 10.9C366.2 6.1504 359.529 2.30005 351.3 2.30005C343.071 2.30005 336.4 6.1504 336.4 10.9C336.4 15.6497 343.071 19.5 351.3 19.5Z" fill="url(#paint10_linear)"/>
</g>
<g opacity="0.6">
<path opacity="0.6" d="M386.8 215.5C395.029 215.5 401.7 211.65 401.7 206.9C401.7 202.15 395.029 198.3 386.8 198.3C378.571 198.3 371.9 202.15 371.9 206.9C371.9 211.65 378.571 215.5 386.8 215.5Z" fill="url(#paint11_linear)"/>
</g>
<g opacity="0.6">
<path opacity="0.6" d="M43.1 237.1C51.329 237.1 58 233.25 58 228.5C58 223.75 51.329 219.9 43.1 219.9C34.8709 219.9 28.2 223.75 28.2 228.5C28.2 233.25 34.8709 237.1 43.1 237.1Z" fill="url(#paint12_linear)"/>
</g>
<defs>
<linearGradient id="paint0_linear" x1="50.6652" y1="17.1895" x2="67.8526" y2="0.00220332" gradientUnits="userSpaceOnUse">
<stop offset="0.000310988" stop-color="#82BAF6"/>
<stop offset="1" stop-color="#4365AE"/>
</linearGradient>
<linearGradient id="paint1_linear" x1="171.526" y1="148.155" x2="235.95" y2="83.7304" gradientUnits="userSpaceOnUse">
<stop stop-color="#16B157"/>
<stop offset="1" stop-color="#98E35D"/>
</linearGradient>
<linearGradient id="paint2_linear" x1="344.72" y1="235.281" x2="361.907" y2="218.093" gradientUnits="userSpaceOnUse">
<stop offset="0.000310988" stop-color="#82BAF6"/>
<stop offset="1" stop-color="#4365AE"/>
</linearGradient>
<linearGradient id="paint3_linear" x1="375.598" y1="38.3816" x2="392.785" y2="21.1944" gradientUnits="userSpaceOnUse">
<stop offset="0.000310988" stop-color="#82BAF6"/>
<stop offset="1" stop-color="#4365AE"/>
</linearGradient>
<linearGradient id="paint4_linear" x1="6.49768" y1="213.197" x2="23.685" y2="196.009" gradientUnits="userSpaceOnUse">
<stop offset="0.000310988" stop-color="#82BAF6"/>
<stop offset="1" stop-color="#4365AE"/>
</linearGradient>
<linearGradient id="paint5_linear" x1="324.566" y1="39.973" x2="345.775" y2="39.973" gradientUnits="userSpaceOnUse">
<stop offset="0.000310988" stop-color="#82BAF6"/>
<stop offset="1" stop-color="#4365AE"/>
</linearGradient>
<linearGradient id="paint6_linear" x1="58.9678" y1="193.509" x2="80.1762" y2="193.509" gradientUnits="userSpaceOnUse">
<stop offset="0.000310988" stop-color="#82BAF6"/>
<stop offset="1" stop-color="#4365AE"/>
</linearGradient>
<linearGradient id="paint7_linear" x1="61.3703" y1="39.758" x2="82.5787" y2="39.758" gradientUnits="userSpaceOnUse">
<stop offset="0.000310988" stop-color="#82BAF6"/>
<stop offset="1" stop-color="#4365AE"/>
</linearGradient>
<linearGradient id="paint8_linear" x1="327.341" y1="193.509" x2="348.55" y2="193.509" gradientUnits="userSpaceOnUse">
<stop offset="0.000310988" stop-color="#82BAF6"/>
<stop offset="1" stop-color="#4365AE"/>
</linearGradient>
<linearGradient id="paint9_linear" x1="15.5105" y1="34.9775" x2="32.6978" y2="17.7901" gradientUnits="userSpaceOnUse">
<stop offset="0.000310988" stop-color="#82BAF6"/>
<stop offset="1" stop-color="#4365AE"/>
</linearGradient>
<linearGradient id="paint10_linear" x1="342.723" y1="19.4988" x2="359.91" y2="2.31149" gradientUnits="userSpaceOnUse">
<stop offset="0.000310988" stop-color="#82BAF6"/>
<stop offset="1" stop-color="#4365AE"/>
</linearGradient>
<linearGradient id="paint11_linear" x1="378.221" y1="215.482" x2="395.408" y2="198.295" gradientUnits="userSpaceOnUse">
<stop offset="0.000310988" stop-color="#82BAF6"/>
<stop offset="1" stop-color="#4365AE"/>
</linearGradient>
<linearGradient id="paint12_linear" x1="34.4956" y1="237.078" x2="51.6829" y2="219.89" gradientUnits="userSpaceOnUse">
<stop offset="0.000310988" stop-color="#82BAF6"/>
<stop offset="1" stop-color="#4365AE"/>
</linearGradient>
</defs>
</svg>
